<svg version="1.1" id="logo" xmlns="http://www.w3.org/2000/svg" viewBox="0 0 18 194">
<path d="M0.5,3.5V0l17,0v3.5H0.5z"/>
<path d="M12.4,16.5c-0.7,0.8-1.8,1.2-3.4,1.2H0.5l0-3.4h7.6c0.5,0,1-0.1,1.5-0.3c0.6-0.3,1-0.9,1-1.8c0-1.1-0.5-1.9-1.4-2.3C8.6,9.8,8,9.7,7.3,9.7H0.5V6.4h12.5v3.2h-1.8c0.5,0.3,1,0.7,1.4,1.2c0.5,0.7,0.8,1.5,0.8,2.6C13.4,14.6,13,15.7,12.4,16.5z"/>
<path d="M15.7,22.3c1.4,1.4,2.1,3.1,2.1,5.2c0,2.8-0.9,4.9-2.8,6.2c-0.9,0.7-2,1.1-3.2,1.2v-3.6c0.7-0.2,1.3-0.5,1.8-0.9 c0.7-0.6,1.1-1.6,1.1-2.8c0-0.6-0.1-1.2-0.4-1.7c-0.3-0.5-0.7-1-1.2-1.3c-1-0.7-2.5-1.1-4.4-1.1c-1.9,0-3.3,0.4-4.3,1.2 C4,25.1,3.7,25.5,3.4,26c-0.2,0.5-0.4,1.1-0.4,1.6c0,1.2,0.4,2.1,1.2,2.8c0.4,0.4,1.1,0.6,2,0.9v3.5c-1.9-0.3-3.4-1.1-4.5-2.3 C0.6,31.3,0,29.7,0,27.7c0-2.4,0.8-4.3,2.4-5.7c1.6-1.4,3.7-2.1,6.5-2.1C11.8,19.9,14.1,20.7,15.7,22.3z"/>
<path d="M2,47.7c-1.3-1.1-2-2.7-2-4.8s0.7-3.8,2-4.8c1.3-1.1,2.9-1.6,4.7-1.6c1.7,0,3.4,0.5,4.7,1.6c1.3,1.1,2,2.7,2,4.8 c0,2.2-0.7,3.8-2,4.8c-1.3,1.1-3,1.6-4.7,1.6C4.9,49.3,3.3,48.8,2,47.7z M3.8,45.1c0.7,0.5,1.7,0.8,2.9,0.8s2.2-0.3,2.9-0.8 c0.7-0.5,1-1.3,1-2.2c0-1-0.3-1.7-1-2.2C9,40.2,8,39.9,6.7,39.9c-1.3,0-2.2,0.3-2.9,0.8c-0.7,0.5-1,1.3-1,2.2 C2.8,43.9,3.1,44.6,3.8,45.1L3.8,45.1z"/>
<path d="M13,67.2c-0.2,0.6-0.6,1.1-1.1,1.5c-0.5,0.4-1,0.6-1.6,0.7c-0.6,0.1-1.2,0.1-1.9,0.1l-7.9,0v-3.4h8c0.4,0,0.8-0.1,1.2-0.2 c0.6-0.3,0.9-0.8,0.9-1.6c0-0.9-0.4-1.5-1.1-1.9C9,62.1,8.5,62.1,8,62.1H0.5l0-3.3H8c0.7,0,1.3-0.1,1.6-0.2c0.6-0.3,0.9-0.8,0.9-1.6 c0-0.9-0.3-1.6-0.9-1.9c-0.3-0.2-0.9-0.3-1.5-0.3H0.5v-3.3h12.5v3.2h-1.8c0.5,0.3,1,0.7,1.4,1.2c0.5,0.6,0.7,1.5,0.7,2.5 c0,1-0.2,1.7-0.6,2.3c-0.4,0.5-0.9,0.9-1.5,1.1c0.7,0.4,1.2,0.9,1.6,1.6c0.4,0.7,0.5,1.5,0.5,2.3C13.4,66.1,13.3,66.6,13,67.2z"/>
<path d="M13,87.7c-0.2,0.6-0.6,1.1-1.1,1.4c-0.5,0.4-1,0.6-1.6,0.7C9.7,90,9.1,90,8.4,90l-7.9,0v-3.4h8c0.4,0,0.8-0.1,1.2-0.2 c0.6-0.3,0.9-0.8,0.9-1.6c0-0.9-0.4-1.5-1.1-1.9C9,82.7,8.5,82.6,8,82.7H0.5l0-3.3H8c0.7,0,1.3-0.1,1.6-0.2c0.6-0.3,0.9-0.8,0.9-1.6 c0-0.9-0.3-1.6-0.9-1.9c-0.3-0.2-0.9-0.3-1.5-0.3H0.5V72h12.5v3.2h-1.8c0.5,0.3,1,0.7,1.4,1.2c0.5,0.6,0.7,1.5,0.7,2.5 c0,1-0.2,1.7-0.6,2.3c-0.4,0.5-0.9,0.9-1.5,1.1c0.7,0.4,1.2,0.9,1.6,1.6c0.4,0.7,0.5,1.5,0.5,2.3C13.4,86.7,13.3,87.2,13,87.7z"/>
<path d="M2,103.3c-1.3-1.1-2-2.7-2-4.8c0-2.2,0.7-3.8,2-4.8c1.3-1.1,2.9-1.6,4.7-1.6c1.7,0,3.4,0.5,4.7,1.6c1.3,1.1,2,2.7,2,4.8 c0,2.2-0.7,3.8-2,4.8c-1.3,1.1-3,1.6-4.7,1.6C4.9,104.9,3.3,104.4,2,103.3z M3.8,100.7c0.7,0.5,1.7,0.8,2.9,0.8s2.2-0.3,2.9-0.8 c0.7-0.5,1-1.3,1-2.2c0-1-0.3-1.7-1-2.2C9,95.8,8,95.5,6.7,95.5c-1.3,0-2.2,0.3-2.9,0.8c-0.7,0.5-1,1.3-1,2.2 C2.8,99.5,3.1,100.2,3.8,100.7L3.8,100.7z"/>
<path d="M12.9,113.9c-0.3,0.6-0.8,1.1-1.4,1.4h6v3.3h-17v-3.2h1.7c-0.7-0.4-1.2-0.9-1.6-1.6c-0.4-0.7-0.5-1.5-0.5-2.2 c0-1.5,0.6-2.7,1.8-3.7c1.2-1,2.7-1.5,4.6-1.5c2.1,0,3.8,0.5,5.1,1.5c1.2,1,1.8,2.3,1.8,4C13.4,112.6,13.2,113.3,12.9,113.9z M3.9,114.7c0.7,0.5,1.6,0.7,2.7,0.7c1.5,0,2.6-0.4,3.3-1.2c0.4-0.5,0.6-1.1,0.6-1.7c0-1-0.4-1.7-1.1-2.1c-0.7-0.4-1.6-0.7-2.7-0.7 c-1.2,0-2.1,0.2-2.8,0.7c-0.7,0.5-1,1.2-1,2.1C2.9,113.6,3.2,114.3,3.9,114.7L3.9,114.7z"/>
<path d="M14.6,125.1v-3.3h3v3.3H14.6z M13.1,121.7v3.3H0.5v-3.3H13.1z"/>
<path d="M10.7,127h2.3v1.8h3.5v3.2h-3.5v2h-2.3v-2H4.1c-0.5,0-0.8,0.1-1,0.2c-0.1,0.1-0.2,0.5-0.2,1.2v0.3l0,0.3H0.5l-0.1-1.6 c-0.1-1.6,0.2-2.6,0.8-3.2c0.4-0.4,1-0.6,1.7-0.6h7.7V127z"/>
<path d="M14.6,139.5v-3.3h3v3.3H14.6z M13.1,136.2v3.3H0.5v-3.3H13.1z"/>
<path d="M12.8,150.9c-0.4,0.9-1,1.6-1.9,2.2c-0.8,0.5-1.7,0.9-2.6,1c-0.8,0.1-1.7,0.1-2.5,0.1l0-9.2c-1.3,0.1-2.1,0.5-2.7,1.3 c-0.3,0.5-0.5,1.2-0.5,1.8c0,0.5,0.1,1,0.3,1.5c0.3,0.4,0.6,0.8,1.1,1v3.4c-0.7-0.1-1.5-0.5-2.3-1.2C0.7,151.6,0,150.1,0,148 c0-1.6,0.5-3.2,1.5-4.4c1-1.3,2.7-1.9,5-1.9c2.2,0,3.8,0.6,5,1.7c1.2,1.2,1.7,2.7,1.7,4.5C13.4,148.9,13.2,149.9,12.8,150.9z M9.9,145.9c-0.5-0.5-1.2-0.8-1.9-0.9v5.7c0.9-0.1,1.5-0.4,2-0.9c0.5-0.5,0.7-1.2,0.7-1.9C10.7,147.1,10.4,146.4,9.9,145.9z"/>
<path d="M4.5,159.1c-0.6,0.1-1,0.2-1.2,0.5c-0.4,0.4-0.7,1.2-0.7,2.3c0,0.5,0.1,1.1,0.3,1.5c0.1,0.2,0.2,0.3,0.3,0.4 c0.2,0.1,0.3,0.2,0.5,0.2c0.2,0,0.3,0,0.5-0.1c0.1-0.1,0.3-0.2,0.4-0.3c0.2-0.3,0.5-1.5,1-3.4c0.4-1.4,0.8-2.4,1.3-3 s1.3-0.9,2.3-0.9c0.6,0,1.1,0.1,1.6,0.4c0.5,0.2,1,0.6,1.3,1c0.8,0.9,1.3,2.2,1.3,3.9c0,1.6-0.3,2.8-0.9,3.8c-0.6,1-1.7,1.6-3.2,1.7v-3.3c0.4,0,0.7-0.1,1-0.4c0.4-0.4,0.7-1,0.7-1.9c0-0.7-0.1-1.2-0.3-1.5c-0.1-0.1-0.2-0.2-0.3-0.3c-0.1-0.1-0.3-0.1-0.5-0.1 c-0.2,0-0.3,0-0.5,0.1c-0.1,0.1-0.3,0.2-0.3,0.4c-0.2,0.3-0.5,1.5-0.9,3.4c-0.3,1.3-0.8,2.3-1.4,2.9c-0.3,0.3-0.7,0.6-1.1,0.7 c-0.4,0.2-0.8,0.2-1.3,0.2c-0.6,0-1.2-0.1-1.7-0.3s-1-0.6-1.4-1C0.4,165,0,163.6,0,161.6c0-2,0.4-3.4,1.2-4.4 c0.4-0.5,0.9-0.8,1.4-1.1c0.6-0.2,1.1-0.4,1.8-0.3L4.5,159.1z"/>
<path d="M8.2,176c0-0.6,0.1-1.3,0.4-1.9c0.2-0.6,0.6-1.1,1.1-1.6c0.5-0.5,1-0.8,1.6-1.1c0.6-0.2,1.2-0.4,1.9-0.4 c0.6,0,1.3,0.1,1.9,0.4c0.6,0.2,1.1,0.6,1.6,1.1c1.9,1.9,1.9,4.9,0,7c-0.5,0.5-1.9,1.9-2.7,2.6c0.7,0.7,2,1.9,2.6,2.6 c1.9,2.1,1.9,5.1,0,7c-0.5,0.5-1,0.8-1.6,1.1c-0.6,0.2-1.2,0.4-1.9,0.4c-0.6,0-1.3-0.1-1.9-0.4c-0.6-0.2-1.1-0.6-1.6-1.1 c-1.9-1.9-1.9-4.9,0-7c0.6-0.7,1.9-2,2.6-2.6c-0.7-0.7-2-1.9-2.6-2.6C8.7,178.6,8.2,177.3,8.2,176z M13.1,172.3 c-0.5,0-1,0.1-1.4,0.3c-0.5,0.2-0.9,0.5-1.2,0.8c-1.5,1.5-1.5,3.7,0,5.3c0.6,0.7,1.9,2,2.6,2.6c0.7-0.7,2.2-2.1,2.6-2.6 c1.5-1.6,1.5-3.9,0-5.3c-0.3-0.4-0.8-0.6-1.2-0.8S13.6,172.3,13.1,172.3z M13.1,183c-0.7,0.7-2,1.9-2.6,2.6c-1.5,1.6-1.5,3.9,0,5.3 c0.3,0.3,0.8,0.6,1.2,0.8c0.5,0.2,0.9,0.3,1.4,0.3s1-0.1,1.4-0.3c0.5-0.2,0.9-0.5,1.2-0.8c1.5-1.5,1.5-3.7,0-5.3 C15.1,184.9,13.7,183.6,13.1,183L13.1,183z"/>
</svg>
